<svg xmlns="http://www.w3.org/2000/svg" viewBox="0 0 38.03 53.51"><title>logo e white_1</title><g id="Слой_2" data-name="Слой 2"><g id="Слой_1-2" data-name="Слой 1"><path d="M18.73,11.91l1,.79L19.26,14a9.77,9.77,0,0,0-.86,3.34,5.86,5.86,0,0,0,1.25,2.24l.61.88c.61.9,1.3,1.78,2,2.66.87,1.11,1.72,2.22,2.45,3.37l.14.22V27a14,14,0,0,1-.2,2,6.11,6.11,0,0,0,.06,3.11,2.2,2.2,0,0,0,1.08,1.09,2,2,0,0,0,1.45.12c1.66-.49,1.56-3.92,1.48-6.86l-.05-1.81V12.39c0-.84,0-1.53-.05-2.1-.07-2-.09-2.63.87-4a10.07,10.07,0,0,1,1-1.19l.32-.37h-.13c-4.37-.13-10.68-.32-13.89.85-4,1.47-7.41,4.9-9.62,9.17A25.27,25.27,0,0,0,4.47,29.45c1,7.67,4.28,13,8.31,16a15.48,15.48,0,0,0,5.33,2.65,13.86,13.86,0,0,0,5.49.38,12.68,12.68,0,0,0,8.17-4.55H37l-.43.58c-3.77,5.13-8.33,7.75-12.94,8.36A17.11,17.11,0,0,1,13.53,51a22.6,22.6,0,0,1-8.21-7.42c-4-5.84-6-14-4.13-23.14A27,27,0,0,1,8.63,6,19.4,19.4,0,0,1,22.19.5C23.06.76,33.87.58,36,.59l.07.83c.27,3.47-.22,4-1.41,5.27L33.54,7.91a3.77,3.77,0,0,0-.86,1.21,10.13,10.13,0,0,0-.1,2.36v.89c0,2.9,0,5.81,0,8.71v6.69a16.79,16.79,0,0,1-1,6.81,5,5,0,0,1-5,3.11c-2.74,0-4.27-1.08-5.09-3-.71-1.68-.8-4-.7-6.77-.13-.24-.59-.81-1.18-1.56-2.79-3.52-8.11-10.24-3-15.06l.5-.47.58.36A5.39,5.39,0,0,1,18.73,11.91Z" style="fill:#fff"/><path d="M5.32,43.57c-4-5.84-6-14-4.13-23.14A27,27,0,0,1,8.63,6,19.4,19.4,0,0,1,22.19.5C23.06.76,33.87.58,36,.59l.07.83c.27,3.47-.22,4-1.41,5.27L33.54,7.91a3.77,3.77,0,0,0-.86,1.21,10.13,10.13,0,0,0-.1,2.36v.89c0,2.9,0,5.81,0,8.71v6.69a16.79,16.79,0,0,1-1,6.81,5,5,0,0,1-5,3.11c-2.74,0-4.27-1.08-5.09-3-.71-1.68-.8-4-.7-6.77-.13-.24-.59-.81-1.18-1.56-2.79-3.52-8.11-10.24-3-15.06l.5-.47.58.36a5.39,5.39,0,0,1,1,.72l1,.79L19.26,14a9.77,9.77,0,0,0-.86,3.34,5.86,5.86,0,0,0,1.25,2.24l.61.88c.61.9,1.3,1.78,2,2.66.87,1.11,1.72,2.22,2.45,3.37l.14.22V27a14,14,0,0,1-.2,2,6.11,6.11,0,0,0,.06,3.11,2.2,2.2,0,0,0,1.08,1.09,2,2,0,0,0,1.45.12c1.66-.49,1.56-3.92,1.48-6.86l-.05-1.81V12.39c0-.84,0-1.53-.05-2.1-.07-2-.09-2.63.87-4a10.07,10.07,0,0,1,1-1.19l.32-.37h-.13c-4.37-.13-10.68-.32-13.89.85-4,1.47-7.41,4.9-9.62,9.17A25.27,25.27,0,0,0,4.47,29.45c1,7.67,4.28,13,8.31,16a15.48,15.48,0,0,0,5.33,2.65,13.86,13.86,0,0,0,5.49.38,12.68,12.68,0,0,0,8.17-4.55H37l-.43.58c-3.77,5.13-8.33,7.75-12.94,8.36A17.11,17.11,0,0,1,13.53,51,22.6,22.6,0,0,1,5.32,43.57Z" style="fill:none;stroke:#fff;stroke-miterlimit:10"/></g></g></svg>