<svg xmlns="http://www.w3.org/2000/svg" viewBox="0 0 36.53 52.51"><title>logo e</title><g id="Слой_2" data-name="Слой 2"><g id="Слой_1-2" data-name="Слой 1"><path d="M4.82,43.06c-4-5.83-6-14-4.13-23.13A26.85,26.85,0,0,1,8.13,5.48,19.4,19.4,0,0,1,21.69,0c.86.26,11.67.07,13.77.09l.07.83c.27,3.47-.22,4-1.41,5.26L33,7.4a4,4,0,0,0-.87,1.21,10.92,10.92,0,0,0-.1,2.37l0,.89c0,2.9,0,5.81,0,8.71v6.68a16.85,16.85,0,0,1-1,6.82,5,5,0,0,1-5,3.1c-2.74,0-4.27-1.07-5.09-3-.72-1.68-.81-4-.7-6.77-.14-.24-.59-.82-1.18-1.56-2.79-3.53-8.11-10.24-3-15.06l.5-.47.59.35a5.34,5.34,0,0,1,1,.73l1,.79-.44,1.3c-.62,1.84-.93,2.73-.86,3.35a6.09,6.09,0,0,0,1.25,2.24l.62.88c.61.89,1.3,1.78,2,2.66.86,1.11,1.72,2.22,2.45,3.37l.14.22v.27a16,16,0,0,1-.2,2,6,6,0,0,0,.06,3.1,2.25,2.25,0,0,0,1.07,1.1,2,2,0,0,0,1.45.12c1.67-.49,1.57-3.92,1.48-6.86l0-1.81V11.88c0-.83,0-1.53,0-2.09-.07-2-.09-2.63.87-4a10.17,10.17,0,0,1,1-1.2l.33-.36h-.13c-4.37-.13-10.68-.32-13.89.85-4,1.47-7.41,4.9-9.62,9.17A25.18,25.18,0,0,0,4,28.94c1,7.68,4.27,13,8.3,16a15.81,15.81,0,0,0,5.33,2.64,13.93,13.93,0,0,0,5.5.39,12.68,12.68,0,0,0,8.16-4.55h5.27l-.42.57c-3.77,5.14-8.34,7.76-12.94,8.37A17.14,17.14,0,0,1,13,50.49a22.51,22.51,0,0,1-8.2-7.43" fill-rule="evenodd"/></g></g></svg>