<svg xmlns="http://www.w3.org/2000/svg" viewBox="0 0 205.92 79.85"><title>Ресурс 2</title><g id="Слой_2" data-name="Слой 2"><g id="Слой_1-2" data-name="Слой 1"><path d="M54.36,46.35A11.38,11.38,0,0,0,57.7,48a13.22,13.22,0,0,0,4,.58,11.42,11.42,0,0,0,8.25-3.13q3.24-3.13,3.24-8.88V16.18q0-5.64-3.08-8.82a11.18,11.18,0,0,0-8.41-3.18,11.26,11.26,0,0,0-8.24,3.18q-3.24,3.18-3.24,8.82V79.85H46V.52h4.17V6.05A23.72,23.72,0,0,1,55.3,1.88,11.88,11.88,0,0,1,61.66,0a16,16,0,0,1,6.22,1.2,14.77,14.77,0,0,1,5,3.34,15.44,15.44,0,0,1,3.29,5.12,17.24,17.24,0,0,1,1.2,6.52V36.53a17.36,17.36,0,0,1-1.25,6.68,15.26,15.26,0,0,1-3.39,5.12,15.43,15.43,0,0,1-5,3.24,16,16,0,0,1-6.06,1.14,15.33,15.33,0,0,1-7.3-1.77Z"/><path d="M90.89,37.06q0,5.63,3.08,8.82a11.14,11.14,0,0,0,8.4,3.18,11.29,11.29,0,0,0,8.25-3.18q3.24-3.19,3.24-8.82V16.18q0-5.75-3.24-8.87a11.37,11.37,0,0,0-8.25-3.13A11.22,11.22,0,0,0,94,7.31q-3.07,3.12-3.08,8.87Zm11.48,16.18A16,16,0,0,1,96.16,52a15.09,15.09,0,0,1-5-3.35,15.53,15.53,0,0,1-3.28-5.11,17.27,17.27,0,0,1-1.2-6.52V16.18a17.55,17.55,0,0,1,1.2-6.63A15.53,15.53,0,0,1,91.2,4.44a14.21,14.21,0,0,1,5-3.29A16.53,16.53,0,0,1,102.37,0a15.83,15.83,0,0,1,6.06,1.15,14.78,14.78,0,0,1,5,3.29,16,16,0,0,1,3.39,5.11A17,17,0,0,1,118,16.18V37.06a16.72,16.72,0,0,1-1.25,6.52,16,16,0,0,1-3.39,5.11,15.74,15.74,0,0,1-5,3.35A15.31,15.31,0,0,1,102.37,53.24Z"/><path d="M129,.52h4.18V6.05a23.65,23.65,0,0,1,5.11-4.17A11.92,11.92,0,0,1,144.65,0a15.91,15.91,0,0,1,6.21,1.2,14.81,14.81,0,0,1,5,3.34,15.59,15.59,0,0,1,3.29,5.12,17.24,17.24,0,0,1,1.2,6.52V52.71h-4.18V16.18q0-5.64-3.08-8.82a11.14,11.14,0,0,0-8.4-3.18,11.29,11.29,0,0,0-8.25,3.18q-3.22,3.18-3.23,8.82V52.71H129Z"/><path d="M193.4,28.81a11.39,11.39,0,0,0-3.34-1.62,13.66,13.66,0,0,0-4-.57,12,12,0,0,0-8.25,2.87,9.63,9.63,0,0,0-3.23,7.57q0,5.63,3.23,8.82a11.29,11.29,0,0,0,8.25,3.18,11.14,11.14,0,0,0,8.4-3.18c2.06-2.13,3.08-5.07,3.08-8.82V16.18c0-3.83-1-6.79-3.08-8.87a11.22,11.22,0,0,0-8.4-3.13,11.66,11.66,0,0,0-9.6,4.59l-3.34-2a13.09,13.09,0,0,1,5.48-4.95A16.25,16.25,0,0,1,186.09,0a16.45,16.45,0,0,1,6.21,1.15,14.12,14.12,0,0,1,5,3.29,15.55,15.55,0,0,1,3.29,5.11,17.55,17.55,0,0,1,1.2,6.63V37.06c0,1.74,0,3.3.05,4.69a16.56,16.56,0,0,0,.42,3.6,4.58,4.58,0,0,0,1.25,2.35,3.42,3.42,0,0,0,2.45.84v4.17a7.27,7.27,0,0,1-5-1.51,8.54,8.54,0,0,1-2.4-4,15.7,15.7,0,0,1-5.32,4.39A15.89,15.89,0,0,1,180,52a15.63,15.63,0,0,1-5-3.35,15.81,15.81,0,0,1-3.4-5.11,16.72,16.72,0,0,1-1.25-6.52,13.25,13.25,0,0,1,1.25-5.69,14.93,14.93,0,0,1,3.4-4.65,16.27,16.27,0,0,1,5-3.13,15.74,15.74,0,0,1,6.05-1.15,15.29,15.29,0,0,1,7.31,1.78Z"/><path d="M4.82,43.09c-4-5.84-6-14-4.13-23.14A26.86,26.86,0,0,1,8.13,5.51,19.36,19.36,0,0,1,21.69,0c.86.25,11.67.07,13.77.08l.07.83c.27,3.47-.22,4-1.41,5.27L33,7.43a3.85,3.85,0,0,0-.87,1.21,10.81,10.81,0,0,0-.1,2.36l0,.89c0,2.9,0,5.81,0,8.71v6.69a16.88,16.88,0,0,1-1,6.82,5,5,0,0,1-5,3.1c-2.74,0-4.27-1.07-5.09-3-.72-1.68-.81-4-.7-6.77-.14-.24-.59-.81-1.18-1.56-2.79-3.52-8.11-10.24-3-15.06l.5-.47.59.36a5.39,5.39,0,0,1,1,.72l1,.8-.44,1.3a10,10,0,0,0-.86,3.34,6,6,0,0,0,1.25,2.24l.62.88c.61.9,1.3,1.79,2,2.66.86,1.12,1.72,2.22,2.45,3.37l.14.23v.26a15.64,15.64,0,0,1-.2,2,6,6,0,0,0,.06,3.11,2.22,2.22,0,0,0,1.07,1.09,2.07,2.07,0,0,0,1.45.13c1.67-.5,1.57-3.92,1.48-6.86l0-1.82V11.91c0-.84,0-1.53,0-2.1-.07-2-.09-2.63.87-4a10,10,0,0,1,1-1.19l.33-.37h-.13c-4.37-.13-10.68-.31-13.89.85-4,1.48-7.41,4.9-9.62,9.17A25.23,25.23,0,0,0,4,29c1,7.67,4.27,13,8.3,16a15.66,15.66,0,0,0,5.33,2.65,13.92,13.92,0,0,0,5.5.38,12.67,12.67,0,0,0,8.16-4.54h5.27l-.42.57c-3.77,5.13-8.34,7.76-12.94,8.36A17.21,17.21,0,0,1,13,50.52a22.69,22.69,0,0,1-8.2-7.43" style="fill-rule:evenodd"/></g></g></svg>